<?xml version="1.0" encoding="utf-8"?>
<svg xmlns="http://www.w3.org/2000/svg" viewBox="0 0 48 48" width="48px" height="48px" xmlns:bx="https://boxy-svg.com"><defs><bx:export><bx:file format="svg" href="#object-0" path="Unbetitelt.svg"/><bx:file format="svg" href="#object-1" path="Unbetitelt 2.svg"/><bx:file format="svg" href="#object-2" path="Unbetitelt 3.svg"/><bx:file format="svg" href="#object-3" path="Unbetitelt 4.svg"/><bx:file format="svg" href="#object-4" path="Unbetitelt 5.svg"/><bx:file format="svg" href="#object-5" path="Unbetitelt 6.svg"/><bx:file format="svg" href="#object-6" path="Unbetitelt 7.svg"/><bx:file format="svg" href="#object-7" path="Unbetitelt 8.svg"/><bx:file format="svg" href="#object-8" path="Unbetitelt 9.svg"/><bx:file format="svg" path="Unbetitelt 10.svg"/></bx:export></defs><path fill="#03A9F4" d="M40,20c0.391-1.735-0.092-3.78-2.5-6c-3.914,3.543-2.795,7.227-1.5,9c0,0-0.166,1-4,1S2,24,2,24S0.167,40,18,40c15.593,0,19.973-12.003,20.828-15.076C39.182,24.972,39.579,25.003,40,25c2.147-0.017,4.93-1.171,6-5.484C43.162,18.533,41.339,18.978,40,20z" id="object-0"/><path fill="#0288D1" d="M2.165,28C2.9,32.739,5.983,40,18,40c12.185,0,17.523-7.33,19.682-12H2.165z" id="object-1"/><path fill="#81D4FA" d="M19.812,39.938C18.892,39.616,14.74,38.848,14,33c-4.209,1.863-7.938,1.375-9.579,1.008C6.583,37.237,10.591,40,18,40C18.623,40,19.224,39.976,19.812,39.938z" id="object-2"/><path fill="#FFF" d="M18 30A2 2 0 1 0 18 34A2 2 0 1 0 18 30Z" id="object-3"/><path fill="#37474F" d="M 14.914 33.597 C 15.138 34.102 14.934 34.759 14.404 34.915 C 11.103 35.888 8.258 36.017 6.107 36.017 C 5.463 35.398 4.913 34.738 4.451 34.054 C 7.036 34.054 11.161 33.934 13.595 33.088 C 14.117 32.906 14.69 33.09 14.914 33.597 Z M 17 32 C 17 32.552 17.448 33 18 33 C 18.552 33 19 32.552 19 32 C 19 31.448 18.552 31 18 31 C 17.448 31 17 31.448 17 32 Z" id="object-4"/><path fill="#01579B" d="M11,24H6v-5h5V24z M21,19h-5v5h5V19z M31,19h-5v5h5V19z M16,14h-5v5h5V14z M26,14h-5v5h5V14z" id="object-5"/><path fill="#0288D1" d="M16,24h-5v-5h5V24z M26,19h-5v5h5V19z M26,9h-5v5h5V9z M21,14h-5v5h5V14z" id="object-6"/><path d="M12.22 2h-.44a2 2 0 0 0-2 2v.18a2 2 0 0 1-1 1.73l-.43.25a2 2 0 0 1-2 0l-.15-.08a2 2 0 0 0-2.73.73l-.22.38a2 2 0 0 0 .73 2.73l.15.1a2 2 0 0 1 1 1.72v.51a2 2 0 0 1-1 1.74l-.15.09a2 2 0 0 0-.73 2.73l.22.38a2 2 0 0 0 2.73.73l.15-.08a2 2 0 0 1 2 0l.43.25a2 2 0 0 1 1 1.73V20a2 2 0 0 0 2 2h.44a2 2 0 0 0 2-2v-.18a2 2 0 0 1 1-1.73l.43-.25a2 2 0 0 1 2 0l.15.08a2 2 0 0 0 2.73-.73l.22-.39a2 2 0 0 0-.73-2.73l-.15-.08a2 2 0 0 1-1-1.74v-.5a2 2 0 0 1 1-1.74l.15-.09a2 2 0 0 0 .73-2.73l-.22-.38a2 2 0 0 0-2.73-.73l-.15.08a2 2 0 0 1-2 0l-.43-.25a2 2 0 0 1-1-1.73V4a2 2 0 0 0-2-2z" transform="matrix(1.1179698849668895, 0, 0, 1.1179698849668895, 20.137683622206442, 19.461101692029093)" style="stroke: rgb(0, 0, 0); fill: rgba(255, 255, 255, 0.467); stroke-width: 2.68344px;" id="object-7"/><circle cx="31.621" cy="33.95" r="3.191" id="object-8" style="stroke-width: 25.8542px; vector-effect: non-scaling-stroke;" transform="matrix(1.0509013557125804, 0, 0, 1.0509013557125804, 0.4209878205948612, -2.8115963361860317)"/></svg>